<!DOCTYPE svg PUBLIC "-//W3C//DTD SVG 1.1//EN" "http://www.w3.org/Graphics/SVG/1.1/DTD/svg11.dtd">
<svg xmlns="http://www.w3.org/2000/svg" viewBox="0 0 512 512">
<path fill="white" d="M130.03 100.564c-4.602 2.022-6.805 4.119-9.386 8.936l-2.144 4v285l2.222 4.155c5.404 10.106 7.452 10.532 48.853 10.155l34.075-.31 4.054-2.684c2.44-1.616 4.898-4.428 6.175-7.066l2.121-4.381V113.631l-2.121-4.381c-1.277-2.638-3.735-5.45-6.175-7.066L203.65 99.5l-35.075-.23c-29.601-.194-35.617.008-38.545 1.294m176.138.582c-2.535 1.255-5.438 3.816-7 6.176l-2.668 4.032-.26 143.486-.26 143.487 2.131 4.402c1.287 2.658 3.738 5.467 6.185 7.087l4.054 2.684 34.075.31c41.401.377 43.449-.049 48.853-10.155l2.222-4.155v-285l-2.144-4c-5.484-10.233-6.68-10.5-47.074-10.499-32.525.001-33.943.08-38.114 2.145" fill-rule="evenodd"/>
</svg>