<svg width="64" height="64" viewBox="0 0 123.805 112.916" xml:space="preserve" xmlns="http://www.w3.org/2000/svg"><path style="display:inline;fill:#2d86fd;stroke-width:.264583" d="M71.288 272.786c-6.389-3.2-12.967-9.58-18.688-18.128-3.77-5.632-2.8-5.264-14.173-5.379l-8.797-.088v-38.586l8.533-.002c11.166-.002 10.762.132 13.98-4.662 6.326-9.43 17.825-19.678 22.08-19.678.337 0 .386 5.573.386 43.92 0 35.894-.063 43.921-.344 43.921-.19 0-1.53-.593-2.977-1.318z" transform="translate(-18.517 -173.555)"/><path style="display:inline;fill:#000;stroke-width:.264583" d="M76.85 286.28c-11.283-1.584-22.964-10.056-32.347-23.462l-1.512-2.159-7.937-.092c-9.936-.115-11.669-.679-14.488-4.714-2.12-3.034-2.048-2.136-2.048-25.97 0-25.088-.145-24 3.676-27.565 2.886-2.692 4.673-3.09 13.888-3.092l6.91-.002 2.417-3.24c13.101-17.556 34.596-28.006 39.71-19.305l.735 1.25v104.51l-.735 1.25c-1.402 2.385-3.98 3.193-8.268 2.59zm-1.976-56.094v-44.448l-1.78.67c-6.885 2.592-14.433 9.48-21.11 19.265-3.344 4.903-2.634 4.661-13.689 4.665l-8.665.003v39.158h8.057c11.333 0 11.086-.087 14.507 5.112 5.109 7.762 11.935 14.602 17.756 17.79 1.44.79 4.502 2.193 4.858 2.227.036.003.066-19.995.066-44.441zm32.551 53.693c-5.176-2.18-4.817-7.272.775-10.983 30.73-20.394 30.843-64.85.216-85.287-4.038-2.695-4.996-6.101-2.512-8.93 2.315-2.637 4.909-2.646 8.812-.032 32.846 21.993 37.117 68.255 8.847 95.819-7.41 7.224-13.248 10.63-16.138 9.413zm-6.192-23.113c-4.434-1.642-4.872-6.03-1.005-10.062 11.415-11.9 11.443-28.726.069-40.97-3.438-3.7-3.702-6.417-.872-8.97 7.235-6.53 20.29 12.42 20.268 29.42-.02 15.105-11.024 33.334-18.46 30.582z" transform="translate(-18.517 -173.555)"/></svg>