<svg width="64" height="64" viewBox="0 0 114.766 112.934" xml:space="preserve" xmlns="http://www.w3.org/2000/svg"><path style="display:inline;fill:#2e86fd;stroke-width:.264583" d="M74.27 188.084c-6.406-3.21-13.067-9.69-18.77-18.265-3.642-5.475-2.73-5.132-13.958-5.242l-8.93-.088v-38.586l8.533-.003c11.179-.001 10.828.118 14.117-4.82 6.118-9.191 17.758-19.52 21.997-19.52.266 0 .333 8.83.333 43.921 0 35.894-.063 43.921-.345 43.921-.19 0-1.529-.593-2.976-1.318z" transform="translate(-21.5 -88.838)"/><path style="fill:#000;stroke-width:.264583" d="M79.833 201.562c-11.125-1.455-22.957-10.03-32.348-23.446l-1.511-2.16-7.938-.091c-9.936-.115-11.668-.68-14.487-4.714-2.12-3.034-2.049-2.14-2.049-25.938 0-24.94-.13-23.915 3.473-27.462 2.783-2.74 4.907-3.226 14.112-3.226h6.929l1.55-2.164c13.13-18.34 35.871-29.565 40.677-20.079l.728 1.436v103.527l-.728 1.436c-1.403 2.77-3.574 3.513-8.408 2.881zm-1.977-56.078v-44.448l-1.78.67c-6.885 2.592-14.433 9.48-21.109 19.265-3.345 4.903-2.635 4.661-13.69 4.664l-8.665.003v39.159h8.057c11.333 0 11.086-.088 14.507 5.111 5.109 7.763 11.935 14.603 17.756 17.792 1.44.789 4.503 2.192 4.858 2.226.036.003.066-19.995.066-44.442zm27.454 18.798c-2.975-.952-4.682-3.95-3.892-6.838.296-1.086.93-1.844 4.92-5.886l4.579-4.64-4.492-4.485c-4.96-4.955-5.52-5.841-5.167-8.195.343-2.29 2.434-4.36 4.619-4.57 2.764-.265 2.904-.179 8.032 4.915l4.7 4.668 4.428-4.415c6.217-6.199 9.284-6.941 12.075-2.923 2.159 3.107 1.448 4.914-4.17 10.599l-4.515 4.57 4.395 4.426c6.189 6.229 6.862 8.662 3.226 11.658-3.106 2.56-4.86 1.932-10.693-3.83l-4.64-4.582-4.09 4.113c-5.199 5.225-6.87 6.197-9.315 5.415z" transform="translate(-21.5 -88.838)"/></svg>