<!DOCTYPE svg PUBLIC "-//W3C//DTD SVG 1.1//EN" "http://www.w3.org/Graphics/SVG/1.1/DTD/svg11.dtd">
<svg xmlns="http://www.w3.org/2000/svg" viewBox="0 0 600 600">
<path d="M280 9.613C180.71 18.55 98.463 69.4 49.449 152.154 12.699 214.202.354 290.284 15.576 360.911c35.731 165.787 203.848 265.594 367.213 218.005 153.042-44.582 241.164-207.1 196.127-361.705C549.481 116.168 464.955 37.989 360.911 15.577 338.359 10.719 299.517 7.856 280 9.613m-76.497 243.384-96.994 96.997 24.988 25.003C145.24 388.749 156.94 400 157.495 400c.556 0 32.958-31.95 72.005-71l70.995-71 70.752 70.747L442 399.495l25.748-25.748L493.496 348 397.5 252c-52.798-52.8-96.223-96-96.5-96-.277 0-44.151 43.649-97.497 96.997" fill-rule="evenodd"/>
</svg>