<svg width="64" height="64" viewBox="0 0 64 64" xml:space="preserve" xmlns="http://www.w3.org/2000/svg"><path style="display:inline;fill:#8ed6f7;stroke-width:.264583" d="m106.597 166.373-2.381.08-1.852-.064-1.852-.065-2.237-.283-2.237-.283-2.268-.876-2.268-.876-1.965-.989-1.964-.99-2.077-1.288-2.078-1.288-2.036-1.52-2.037-1.52-3.008-2.916-3.008-2.916-1.655-2.117-1.654-2.117-1.5-2.305-1.499-2.305-1.57-3.251-1.572-3.251-.667-1.963-.667-1.963.082-.082.082-.082.838 2.048.837 2.049 1.436 2.43 1.437 2.43 1.535 2.065 1.535 2.064 2.793 2.778 2.794 2.778 2.192 1.588 2.193 1.587 2.343 1.343 2.342 1.343 2.847 1.134 2.847 1.133 2.976.752 2.976.752 2.32.308 2.32.309 4.78-.131 4.78-.132 2.514-.543 2.514-.543 2.249-.71 2.248-.711 2.544-1.118 2.544-1.118 2.083-1.265 2.083-1.265 1.913-1.44 1.913-1.439 2.002-1.87 2.003-1.87 2.057-2.558 2.058-2.558 1.388-2.298 1.388-2.298.886-1.922.886-1.922.924-2.663.925-2.662.57-2.751.57-2.751.187-3.12.186-3.12-.187-3.13-.187-3.13-.548-2.69-.548-2.69-.8-2.448-.8-2.448-1.713-3.44-1.714-3.439-1.707-2.381-1.706-2.381-2.02-2.193-2.02-2.192-2.156-1.81-2.156-1.81-2.312-1.503-2.313-1.503-2.714-1.295-2.715-1.295-2.387-.779-2.387-.779-2.514-.545-2.514-.544-3.367-.274-3.367-.273-3.367.273-3.367.274-2.514.544-2.514.545-2.387.77-2.388.769-3.44 1.715-3.439 1.716-2.513 1.78-2.514 1.78-3.175 3.182-3.175 3.182-1.786 2.514-1.786 2.513-1.72 3.413-1.72 3.413v-.352l1.072-2.707 1.072-2.708 1.342-2.514 1.34-2.513 1.803-2.646 1.803-2.646 2.207-2.507 2.207-2.507 2.507-2.213 2.507-2.214 3.043-2.037 3.042-2.037 2.646-1.35 2.646-1.348 2.558-.952 2.558-.952 3.844-.296 3.843-.296 3.402.285 3.401.285 2.883.556 2.882.556 3.19 1.043 3.19 1.042 3.174 1.559 3.175 1.558 2.117 1.385 2.116 1.385 1.588 1.214 1.587 1.214 2.489 2.387 2.488 2.388 2.042 2.55 2.041 2.55 1.464 2.367 1.464 2.366.916 1.83.916 1.83.98 2.491.979 2.49.653 2.457.654 2.456.384 2.009.385 2.009.27 3.563.27 3.563-.262 3.458-.264 3.458-.424 2.262-.424 2.263-.754 2.689-.755 2.688-1.342 3.178-1.342 3.177-1.684 2.803-1.683 2.803-1.672 2.211-1.671 2.212-2.927 2.926-2.926 2.927-2.166 1.637-2.166 1.637-2.464 1.502-2.464 1.503-2.117.974-2.117.975-2.249.821-2.249.822-2.513.66-2.514.659-2.91.393-2.91.394zm-3.836-129.23h-.926l.463-.12.463-.122.463.121.463.121z" transform="matrix(.5781 0 0 .4726 -28.476 -16.583)"/><path style="display:inline;fill:#73c9f2;stroke-width:.264583" d="m103.158 166.52-1.059-.006.599-.115.598-.115.46.12.46.121-1.058-.005zm2.91 0-1.058-.006.598-.115.598-.115.46.12.46.121-1.058-.005zm-11.377-1.016-.53-.001-2.471-.654-2.472-.654-2.555-.95-2.555-.951-2.619-1.338-2.618-1.338-2.277-1.498-2.276-1.499-1.993-1.607-1.994-1.608-2.637-2.741-2.636-2.741-1.474-1.98-1.473-1.98-1.224-1.984-1.224-1.985-1.325-2.778-1.326-2.778-1.055-3.175-1.055-3.175-.544-2.734-.543-2.734-.315-3.682-.315-3.682.322-3.77.323-3.77.539-2.647.538-2.645 1.047-3.219 1.047-3.218 1.556-3.161 1.556-3.162 1.435-2.22 1.435-2.218 1.605-1.985 1.605-1.984 2.21-2.23 2.21-2.231 1.898-1.51 1.896-1.508 2.301-1.515 2.301-1.515 3.475-1.67 3.476-1.67 2.116-.698 2.117-.699 2.646-.645 2.646-.645.397.007.396.007-2.546 1.01-2.547 1.01-2.613 1.396-2.612 1.396-2.646 1.802-2.646 1.803-2.507 2.207-2.507 2.207-2.213 2.507-2.213 2.507-2.115 3.153L67 88.887l-1.606 3.303-1.606 3.303-.026.728-.026.728-.244-.15-.243-.15.174.454.174.454-.261-.161-.262-.162-.04.413-.04.412-.026.33-.026.331-.182.138-.183.138-.12.668-.122.668-.557 1.804-.557 1.805-.547 2.549-.546 2.55-.15 4.54-.15 4.542.326 2.603.327 2.602.783 3.175.783 3.175.809 2.513.809 2.514 1.668 3.499L67 141.702l1.51 2.322 1.51 2.321 1.654 2.117 1.655 2.117 3.008 2.916 3.008 2.916 2.037 1.52 2.036 1.52 2.073 1.286 2.073 1.285 1.711.87 1.712.869 2.116.872 2.117.872-.53-.001zm61.162-47.8-.134.331v-1.323l.134.33.133.332zm0-4.233-.134.33v-1.322l.134.33.133.331zm-51.24-43.008h-1.455l.727-.11.728-.11.727.11.728.11zm-2.646-6.312h-.661l.33-.134.331-.133.33.133.331.134z" transform="matrix(.5781 0 0 .4726 -28.476 -16.583)"/><path style="fill:#fdaf69;stroke-width:.264583" d="m104.898 121.813-2.005.074-1.058-.505-1.059-.506-.979-1.023-.98-1.024-.409-.984-.41-.984.006-1.662.006-1.662.483-1.064.484-1.064.897-.897.896-.897 1.194-.532 1.194-.533 1.587.002 1.588.002 1.391.712 1.392.712.777 1.073.778 1.074.307.929.306.93-.101 1.793-.101 1.793-.794 1.284-.794 1.285-1.296.8-1.295.801-2.005.074zm-13.713-6.564-2.58-.008-.485-.282-.485-.282.598-.636.597-.636H93.765v1.852l-2.58-.008zm34.131.004-9.855.004v-1.852h20.026l.438.484.438.483v.559l-.596.16-.595.159z" transform="matrix(.5781 0 0 .4726 -28.476 -16.583)"/><path style="display:inline;fill:#fd9637;stroke-width:.264583" d="M100.288 120.549h-.091l-.504-.596-.504-.595.595.504.595.504v.183zm-8.99-3.44H88.83l-.575-.612-.576-.613V114.71l.512.274.512.274H93.765v1.852zm34.198 0H115.46v-1.852H135.27l.679-.258.678-.258v.974l-.548.697-.548.697zm-27.589-1.516-.132.325.01-.793.01-.794.122.468.122.468-.132.326z" transform="matrix(.5781 0 0 .4726 -28.476 -16.583)"/><path style="display:inline;fill:#db616c;stroke-width:.264583" d="m111.41 115.72-.121.463v-1.852l.12.463.122.463zm31.349-2.58h-2.414l-.381-.727-.381-.728-.884-.849-.883-.848-1.157-.408-1.156-.409h-21.876l-.274-.511-.274-.512V75.51l.974.183.973.183 2.316.776 2.317.776 1.76.79 1.76.789-.552.892-.552.892v1.658l.53.529.529.529.86-.004.86-.004.35-.223.351-.222.593-.983.593-.983 2.231 1.645 2.231 1.644 2.154 2.17 2.153 2.17 1.629 2.196 1.628 2.196-1.02.609-1.022.609-.303.665-.303.666.282.81.282.808.484.26.484.258h1.327l.941-.554.94-.555.763 1.698.762 1.698.712 2.064.712 2.063.507 2.283.507 2.284.175 2.183.175 2.182h-2.413z" transform="matrix(.5781 0 0 .4726 -28.476 -16.583)"/><path style="fill:#d84852;stroke-width:.264583" d="m93.979 113.62-.082-.05-2.249-.165-2.249-.166 2.167-.05 2.168-.049.163.265.164.264zm30.954-.215-9.71.132.201-.202.202-.202 9.509.07 9.508.07zm-11.721-4.774v-.01l-1.176-1.192-1.176-1.19-1.64-.783-1.64-.782h-.851l-.004-3.77-.004-3.771-.334-.662-.335-.661-.72-.345-.72-.345.003-2.433.002-2.433.794-.452.795-.452.262-.69.262-.69V74.465l.992.143.992.143 2.25.295 2.248.295v33.301-.01z" transform="matrix(.5781 0 0 .4726 -28.476 -16.583)"/><path style="display:inline;fill:#3f6c8c;stroke-width:.264583" d="M139.323 153.092h-.132l.48-.529.478-.529h.265l-.48.53-.478.528zm-69.71-.264h-.076l-1.446-1.522-1.446-1.521 1.521 1.446 1.522 1.446v.151zm71.552-1.588h-.132l.621-.661.622-.662h.264l-.621.662-.621.661zm-67.595-3.704h-.086l-.641-.728-.642-.727.728.641.728.642v.172zm62.04 0h-.133l.621-.661.622-.662h.264l-.621.662-.622.661zm-75.537-27.98-.133.331v-1.323l.133.33.134.332zM71.59 85.094h-.132l.479-.529.479-.529h.264l-.479.53-.479.528zm66.004 0h-.09l-.505-.595-.504-.595.595.504.596.504v.182zm-64.162-1.852H73.3l.621-.661.622-.662h.264l-.621.662-.622.661zm62.31 0h-.091l-.504-.595-.504-.595.595.504.596.504v.182zm-69.146-2.38h-.083v-.167l.86-.777.86-.777-.778.86-.777.86zm2.613-2.647h-.132l.478-.529.48-.53h.264l-.479.53-.479.53zm7.3-10.855-.074-.007-1.985-3.496-1.984-3.496-.062-.135-.062-.135 1.319-.727 1.319-.728h.208L77.2 62.15l2.013 3.515v.371l-1.314.665-1.314.666-.075-.007zm32.073-21.424h-7.409v-6.898l.457-.718.457-.718.27-.195.271-.194 2.316-.004 2.315-.004v.793l.529.53.529.529h7.673v6.879z" transform="matrix(.5781 0 0 .4726 -28.476 -16.583)"/><path style="display:inline;fill:#325772;stroke-width:.264583" d="M108.582 166.544h-.662l.33-.133.332-.134.33.134.331.133zm-32.37-21.918h-.092l-.504-.596-.504-.595.595.504.595.504v.183zm56.761 0h-.132l.48-.53.478-.529h.265l-.48.53-.478.529zM53.46 119.82l-.134.33v-1.322l.134.33.133.331zm102.394 0-.134.33v-1.322l.134.33.133.331zm-95.78-7.408-.133.33v-1.323l.133.331.134.33zm-6.614-1.059-.134.331v-1.323l.134.33.133.332zm22.63-25.201h-.133l.479-.53.479-.529h.264l-.479.53-.479.529zm-1.945-17.101-.657.43-2.076-3.637-2.076-3.637-.09-.178-.092-.177 1.455-.832 1.455-.833.247.153.248.153 1.7 2.974 1.702 2.973.3.572.3.57-.88.52-.879.518zm5.178-3.011-.26.26V65.258l.26.261.261.26zm25.29-6.082h-3.439V49.905h6.88v10.054zm-7.548-14.023h-4.109l.074-3.373.074-3.374 3.864-.132 3.863-.132.502-.385.503-.384-.331.371-.33.371v7.038zm19.121-1.51-.093 1.642v-3.44l.001-3.439.093 1.797.093 1.797-.094 1.643z" transform="matrix(.5781 0 0 .4726 -28.476 -16.583)"/><path style="display:inline;fill:#000101;stroke-width:.264583" d="m106.333 170.383-3.44.125-2.522-.208-2.522-.207-1.976-.322-1.976-.322-2.583-.643-2.583-.643-2.946-1.051-2.946-1.051-2.938-1.485-2.937-1.485-2.514-1.648-2.513-1.647-1.72-1.38-1.72-1.378-2.211-2.148-2.212-2.148-1.72-2.008-1.72-2.007-2.088-3.145-2.087-3.145-1.424-2.94-1.424-2.941-.84-2.31-.841-2.31-.495-1.791-.495-1.791-.537-2.686-.537-2.686-.304-3.532-.303-3.532.174-3.042.175-3.043.402-2.77.402-2.768.786-3.052.786-3.052 1.204-3.042 1.204-3.043 1.329-2.514 1.328-2.513 1.709-2.568 1.708-2.568 2.487-2.894 2.487-2.893 2.388-2.064 2.389-2.065v-.463l-2.164-3.733-2.164-3.733-.332-.964-.332-.965.23-1.018.229-1.019.48-.642.481-.643 3.429-2.002 3.428-2.001 1.23-.119 1.231-.118.941.447.942.446.633.973.633.972 1.935 3.374 1.935 3.373h.258l3.494-1.179 3.494-1.18 3.323-.672 3.323-.673h.33V49.905H92.61l-1.132-.548-1.132-.548-.605-.973-.605-.974V38.395l.438-.793.437-.794.62-.559.621-.558.9-.302.9-.3h7.039l.645.293.644.294.294.644.294.645v.71l-.505.625-.505.625-3.927.132-3.927.132-.074 3.374-.074 3.373H116.27l-.074-3.373-.074-3.374-3.927-.132-3.926-.132-.505-.625-.505-.625v-.71l.293-.645.294-.644.645-.294.645-.294h7.271l1.178.595 1.179.596.58.873.58.873.183 1.463.182 1.463-.117 2.847-.117 2.846-.532 1.025-.531 1.024-1.146.606-1.146.606h-4.679v10.583h.238l2.801.54 2.802.541 2.209.64 2.209.64 2.742 1.087 2.742 1.087 2.513 1.335 2.514 1.336 2.568 1.708 2.568 1.708 2.877 2.473 2.877 2.473 1.92 2.204 1.921 2.204 1.455 1.93 1.455 1.929 1.685 2.806 1.686 2.806 1.231 2.805 1.232 2.805.9 2.74.9 2.74.648 3.213.646 3.214.304 3.572.303 3.571-.175 3.043-.174 3.043-.4 2.646-.401 2.646-.627 2.513-.627 2.514-.966 2.778-.967 2.778-1.432 2.94-1.431 2.94-2.087 3.146-2.087 3.145-1.721 2.007-1.72 2.008-2.212 2.148-2.212 2.148-1.72 1.379-1.72 1.379-2.527 1.661-2.528 1.661-3.16 1.582-3.161 1.58-2.758.954-2.757.953-2.534.638-2.535.638-2.778.397-2.778.397zm-2.11-3.83 3.976.033 2.242-.277 2.242-.277 2.58-.522 2.58-.522 2.844-.929 2.843-.93 3.251-1.568 3.251-1.569 2.306-1.496 2.305-1.497 1.852-1.477 1.852-1.477 1.824-1.733 1.823-1.733 1.995-2.381 1.994-2.382 1.568-2.381 1.567-2.381 1.331-2.646 1.331-2.646.897-2.32.896-2.322.773-2.999.773-2.998.44-3.147.44-3.147-.136-5.027-.136-5.027-.398-2.117-.399-2.117-.574-2.249-.574-2.249-.938-2.513-.938-2.514-1.394-2.778-1.393-2.778-1.571-2.381-1.57-2.381-1.603-1.985-1.602-1.984-2.477-2.387-2.478-2.388-1.587-1.212-1.588-1.213-2.04-1.368-2.041-1.368-3.119-1.558-3.119-1.558-2.381-.834-2.381-.834-2.548-.646-2.548-.646-2.744-.39-2.744-.39h-8.731l-2.744.39-2.743.39-2.548.645-2.548.644-2.514.92-2.513.92-1.457.655-1.457.655-2.644 1.525-2.644 1.525-2.496 1.85-2.496 1.849-2.495 2.412-2.496 2.412-1.602 1.984-1.603 1.985-1.691 2.575-1.692 2.576-1.275 2.584-1.274 2.583-.936 2.514-.936 2.513-.574 2.25-.574 2.248-.398 2.117-.399 2.117-.135 5.027-.136 5.027.44 3.147.44 3.147.772 2.998.774 3 .896 2.32.897 2.321 1.33 2.646 1.331 2.646 1.568 2.381 1.568 2.381 1.993 2.382 1.994 2.38 1.692 1.594 1.692 1.594 1.455 1.221 1.455 1.221 2.59 1.752 2.59 1.752 3.495 1.713 3.496 1.714 2.844.925 2.844.924 2.606.531 2.605.531 1.827.235 1.826.234zm-.101-6.617-1.758-.035-2.117-.222-2.117-.222-2.248-.436-2.25-.435-3.174-1.048-3.175-1.048-3.043-1.575-3.043-1.574-2.381-1.706-2.381-1.706-2.057-1.881-2.058-1.882-1.812-2.16-1.813-2.159-1.457-2.248-1.456-2.25-1.191-2.38-1.192-2.382-.847-2.381-.847-2.381-.636-2.779-.636-2.778-.312-3.505-.313-3.506.313-3.506.312-3.506.636-2.778.636-2.778.844-2.381.843-2.381 1.324-2.643 1.324-2.642 1.328-1.988 1.328-1.988 1.446-1.779 1.447-1.779 2.335-2.222 2.334-2.222 2.205-1.586 2.205-1.586 2.381-1.328 2.381-1.327 2.382-.941 2.381-.941 2.378-.687 2.378-.687 2.517-.433 2.517-.434 4.497-.01 4.498-.012 2.117.342 2.117.342 2.114.531 2.114.531 2.12.736 2.118.735 1.985.946 1.984.946 2.212 1.346 2.212 1.346 1.624 1.247 1.625 1.246 2.182 2.09 2.182 2.09 1.423 1.75 1.423 1.75 1.322 1.985 1.323 1.984 1.326 2.646 1.325 2.646.847 2.38.847 2.382.637 2.778.636 2.778.314 3.527.314 3.526-.325 3.485-.325 3.485-.502 2.308-.503 2.309-.922 2.757-.923 2.757-1.239 2.475-1.238 2.476-1.457 2.249-1.456 2.249-1.813 2.159-1.813 2.16-2.057 1.88-2.057 1.882-2.381 1.706-2.382 1.706-3.061 1.587-3.062 1.587-2.808.94-2.809.94-2.464.51-2.464.511-2.74.278-2.74.277zm-2.486-3.955 1.125.022v-2.646l.529-.53.529-.528h1.588l.529.529.529.529v2.646h1.8l3.031-.519 3.033-.518 2.592-.83 2.593-.831 1.926-.877 1.925-.878-.672-1.28-.673-1.279.287-.73.287-.731.647-.295.647-.295.681.17.681.172.665 1.053.665 1.053h.464l1.556-1.145 1.556-1.146 1.694-1.511 1.694-1.512 1.68-1.907 1.68-1.907 1.062-1.511 1.062-1.511-1.079-.55-1.078-.55-.302-.662-.3-.661.248-.709.25-.709.71-.398.71-.399 1.211.589 1.212.589h.452l.934-2.183.933-2.183.539-1.653.539-1.653.528-2.448.529-2.448.184-2.05.184-2.051h-5.087l-.381.728-.381.727-.883.847-.882.846-.984.41-.983.41H113.86l-1.515 1.542-1.515 1.541-1.509.71-1.51.71-1.599.218-1.6.22-1.599-.22-1.6-.218-1.509-.71-1.509-.71-1.515-1.541-1.514-1.541H88.269l-1.415-.74-1.415-.739-.783-1.265-.782-1.266-.1-1.5-.101-1.502.746-1.453.747-1.454 1.146-.795 1.146-.796 3.973-.085 3.973-.086 1.496-1.53 1.496-1.528 1.058-.539 1.058-.538 1.124-.336 1.125-.336V96.472l.529-.53.529-.529h1.588l.529.53.529.529v7.954l.463.148.463.148 1.876.896 1.876.895 1.299 1.395 1.299 1.396 11.553.132 11.553.132 1.147.806 1.147.805.615 1.113.615 1.113h4.74l.148-.386.147-.385-.316-2.459-.317-2.459-.604-2.393-.604-2.393-1.089-2.766-1.089-2.766-.246-.386-.247-.386-1.246.622-1.245.622-.681-.24-.681-.24-.38-.676-.38-.676.178-.709.178-.709 1.054-.697 1.053-.697v-.424l-1.456-1.935-1.456-1.936-2.314-2.34-2.315-2.338-2.066-1.564-2.067-1.563h-.426l-.698 1.053-.697 1.054-.708.177-.71.178-.676-.38-.676-.379-.26-.742-.262-.742.588-1.022.589-1.022v-.494l-2.183-.93-2.183-.932-2.136-.669-2.136-.669-2.098-.395-2.097-.396-1.918-.186-1.918-.187v14.446l-.438.484-.438.484h-1.77l-.53-.53-.528-.528V74.435l-2.18.182-2.18.182-2.274.496-2.274.496-2.002.672-2.003.673-1.878.84-1.878.84v.443l.563 1.158.562 1.159-.365.76-.364.762-.717.252-.716.252-.661-.302-.662-.301-.548-1.076-.55-1.075-1.247.844-1.248.845-2.126 1.788-2.127 1.79-1.445 1.65-1.446 1.65-1.373 1.872-1.373 1.871 1.169.728 1.169.727.171.684.172.684-.295.648-.295.647-.71.27-.711.27-1.306-.646-1.307-.647-.882 1.91-.882 1.91-.688 2.048-.687 2.047-.513 2.433-.513 2.433-.175 2.05-.175 2.05H66.513l.529.53.53.53V116.05l-.53.529-.53.529h-2.718l.184 2.05.184 2.051.528 2.448.529 2.448.539 1.653.538 1.653.934 2.183.933 2.183h.45l1.095-.57 1.094-.571.691.243.692.243.396.706.397.706-.262.744-.261.744-1.121.618-1.121.618 1.054 1.5 1.054 1.501 1.68 1.907 1.68 1.907 1.694 1.512 1.695 1.511 1.555 1.146 1.556 1.145h.465l.665-1.053.665-1.053.68-.171.681-.171.647.295.648.295.286.73.287.731-.672 1.28-.672 1.28 1.925.877 1.925.877 2.608.835 2.609.836 2.792.492 2.792.492 1.124.021zm3.381-33.949 1.596-.09 1.05-.541 1.05-.542.831-.883.83-.883.462-.914.461-.914.13-1.609.128-1.609-.596-1.387-.597-1.387-1.26-1.133-1.26-1.133-1.05-.315-1.05-.314h-2.258l-1.039.31-1.039.312-1.213 1.068-1.213 1.068-.62 1.333-.621 1.333.003 1.455.003 1.455.539 1.19.538 1.191.845.883.845.882.792.415.792.414.663.218.663.217 1.595-.09zm-13.39-4.736 2.229-.055.036-2.05.036-2.05h-4.896l-.718.617-.718.617.025.856.024.856.339.408.339.409.538.223.538.223 2.228-.054zm33.32.078h9.485l.839-.293.838-.292.26-.484.258-.484V114.44l-.65-.65-.648-.65h-20.031l.059 2.05.059 2.051.022.067.023.066zM74.166 69.03l.68-.453 1.985-1.125 1.984-1.124.353-.209.352-.209-2.15-3.703-2.149-3.703-.27.072-.27.071-2.76 1.61-2.76 1.61.087.17.086.171 2.076 3.637 2.076 3.638zm30.446-9.071h3.44V49.905h-6.88v10.054z" transform="matrix(.5781 0 0 .4726 -28.476 -16.583)"/></svg>